<svg id="Layer_1" data-name="Layer 1" xmlns="http://www.w3.org/2000/svg" xmlns:xlink="http://www.w3.org/1999/xlink" viewBox="0 0 850 850"><defs><radialGradient id="radial-gradient" cx="-168.16" cy="875.59" r="17.14" gradientTransform="matrix(22.39, 0, 0, -12.17, 4125.37, 11401.97)" gradientUnits="userSpaceOnUse"><stop offset="0"/><stop offset="1" stop-opacity="0"/></radialGradient><linearGradient id="linear-gradient" x1="-182.19" y1="891.59" x2="-152.67" y2="891.59" gradientTransform="matrix(21.14, 0, 0, -21.14, 3899.28, 19368.76)" gradientUnits="userSpaceOnUse"><stop offset="0" stop-color="#729fcf"/><stop offset="0.32" stop-color="#babdb6"/><stop offset="1" stop-color="#3465a4"/></linearGradient><linearGradient id="linear-gradient-2" x1="71.14" y1="384.44" x2="769.1" y2="384.44" gradientTransform="matrix(0.9, 0, 0, -1.11, -19.31, 944.44)" gradientUnits="userSpaceOnUse"><stop offset="0" stop-color="#729fcf"/><stop offset="1" stop-color="#204a87"/></linearGradient><linearGradient id="linear-gradient-3" x1="-173.72" y1="904.6" x2="-152.92" y2="862.03" gradientTransform="matrix(21.14, 0, 0, -21.14, 3899.28, 19368.76)" gradientUnits="userSpaceOnUse"><stop offset="0" stop-color="#3977c3"/><stop offset="1" stop-color="#89aedc" stop-opacity="0"/></linearGradient><linearGradient id="linear-gradient-4" x1="-167.84" y1="901.61" x2="-167.84" y2="904.85" gradientTransform="matrix(21.93, 0, 0, -20.18, 4038.84, 18518.77)" gradientUnits="userSpaceOnUse"><stop offset="0" stop-color="#fff"/><stop offset="1" stop-color="#729fcf"/></linearGradient><linearGradient id="linear-gradient-5" x1="-174.19" y1="898.78" x2="-174.48" y2="888.28" gradientTransform="matrix(21.14, 0, 0, -21.14, 3896.26, 19424.64)" gradientUnits="userSpaceOnUse"><stop offset="0" stop-color="#fff"/><stop offset="1" stop-color="#fff" stop-opacity="0"/></linearGradient></defs><title>mysql</title><path d="M744.75,745.61C744.76,860.84,573,954.25,361,954.25S-22.73,860.85-22.74,745.63v0C-22.75,630.38,149.05,537,361,537s383.75,93.4,383.76,208.63Z" transform="translate(64.88 -115.86)" style="fill:url(#radial-gradient)"/><path d="M356.67,141.31c-166.17,0-301.29,59.26-301.29,132.15V762.39c0,72.89,135.12,132.14,301.29,132.14s306.66-59.25,306.66-132.14V273.46c0-72.89-140.49-132.15-306.66-132.15Z" transform="translate(64.88 -115.86)" style="stroke-miterlimit:10;stroke-width:21.142906188964844px;fill:url(#linear-gradient);stroke:url(#linear-gradient-2)"/><path d="M356.85,157.79C201.92,157.79,75.94,213,75.94,281V748.81c0,68,126,123.2,280.91,123.2s285.92-55.24,285.92-123.2V281C642.77,213,511.78,157.79,356.85,157.79Z" transform="translate(64.88 -115.86)" style="fill:none;stroke-miterlimit:10;stroke-width:21.142906188964844px;opacity:0.5443037748336792;isolation:isolate;stroke:url(#linear-gradient-3)"/><path d="M640,271.66c0,61.31-126.24,111-282,111S76,333,76,271.66s126.25-111,282-111S640,210.35,640,271.66Z" transform="translate(64.88 -115.86)" style="fill:#3465a4;stroke-miterlimit:10;stroke-width:1.0049270391464233px;stroke:url(#linear-gradient-4)"/><path d="M139,369.83l7.55,354.89,96.65,27.19-3-353.39S284,398.52,355,394c-110.28-4.93-236.45-52.32-279.39-83.06,30,44.23,63.43,58.9,63.43,58.9Z" transform="translate(64.88 -115.86)" style="opacity:0.49367082118988037;isolation:isolate;fill:url(#linear-gradient-5)"/><path d="M77.16,738.33H95.9V650.67l29.25,76.42c3.32,9.19,8.08,12.6,17.3,12.6s13.69-3.41,17.15-12.6l29.11-76.42v87.66h18.88V650.67c0-8.51-2.88-12.59-8.93-14.81-14.27-5.1-23.78-.68-28.11,10.73l-28.68,75.57L114.2,646.59C110,635.18,100.36,630.76,86,635.86c-5.91,2.22-8.79,6.3-8.79,14.81v87.66Zm146-71.32H242v48.17c-.15,2.72.72,8.85,11,9,5.33.17,40.64,0,40.93,0V666.67H312.8v78.81c0,19.4-20.32,23.65-29.83,23.82H223.59V754.5h59.52c12.11-1.53,10.67-8.68,10.67-11.07v-5.78H253.85c-18.59-.17-30.55-9.88-30.69-20.94,0-1,.43-49.36,0-49.7Zm405-55.83c-11.53-.34-20.47,1-28,4.77-2.16,1-5.62,1-5.91,4.25,1.15,1.37,1.3,3.58,2.3,5.45,1.74,3.4,4.76,8,7.5,10.38,3,2.73,6,5.45,9.22,7.83,5.62,4.09,12,6.47,17.44,10.56,3.17,2.38,6.34,5.44,9.51,8,1.59,1.36,2.6,3.57,4.62,4.42v-.51c-1-1.53-1.3-3.74-2.31-5.45-1.44-1.7-2.88-3.23-4.32-4.93a75.13,75.13,0,0,0-15-17.19c-4.61-3.75-14.7-8.85-16.58-15.15l-.28-.34c3.17-.34,6.91-1.7,9.94-2.72,4.9-1.54,9.37-1.2,14.41-2.73,2.31-.68,4.61-1.53,6.92-2.38v-1.53c-2.59-3.07-4.47-7.15-7.21-10a197.68,197.68,0,0,0-23.78-20.94c-4.46-3.4-10.23-5.62-15-8.51-1.72-1-4.61-1.53-5.62-3.23-2.59-3.75-4-8.68-5.91-13.11-4.17-9.36-8.21-19.74-11.81-29.62-2.6-6.63-4.18-13.27-7.35-19.4-14.85-28.93-31-46.46-55.78-63.66-5.33-3.57-11.67-5.1-18.45-7-3.6-.17-7.2-.51-10.8-.69-2.31-1.19-4.62-4.42-6.63-5.95-8.22-6.13-29.4-19.4-35.46-1.87-3.89,11.06,5.77,21.95,9.08,27.57,2.45,3.91,5.62,8.34,7.35,12.76,1,2.9,1.3,6,2.31,9,2.3,7.48,4.47,15.82,7.49,22.8a86.13,86.13,0,0,0,5.34,10.55c1.15,1.88,3.17,2.73,3.6,5.79-2,3.41-2.16,8.51-3.32,12.77-5.19,19.23-3.17,43.06,4.18,57.19,2.31,4.25,7.79,13.61,15.14,10,6.48-3.07,5-12.77,6.91-21.28.44-2,.15-3.4,1-4.76v.34c2,4.76,4,9.36,5.91,14.12,4.47,8.34,12.25,17,18.74,22.81,3.46,3.07,6.19,8.34,10.52,10.22v-.52h-.29c-.87-1.53-2.16-2.21-3.32-3.4A81,81,0,0,1,517,605.74a228.64,228.64,0,0,1-16.14-31c-2.31-5.28-4.33-11.06-6.2-16.34-.86-2-.86-5.11-2.31-6.13-2.16,3.75-5.33,7-6.91,11.58-2.74,7.32-3,16.34-4,25.7-.57.17-.29,0-.57.34-4.62-1.36-6.2-7-7.93-11.75-4.33-12.08-5.05-31.48-1.3-45.44,1-3.57,5.33-14.81,3.6-18.21-.86-3.24-3.74-5.11-5.33-7.66A74,74,0,0,1,464.7,496c-3.45-9.54-5.18-20.09-8.93-29.62-1.73-4.43-4.76-9-7.21-13.11-2.74-4.59-5.76-7.83-7.92-13.27-.72-1.87-1.73-4.94-.58-7a2.49,2.49,0,0,1,2-2.21c1.87-1.88,7.2.51,9.08,1.53a69.34,69.34,0,0,1,14.26,8.51c2,1.7,4.18,4.94,6.78,5.79h3c4.62,1.19,9.8.34,14.13,1.87a87,87,0,0,1,20.75,11.74c18.88,14.13,34.45,34.21,45,58.21,1.73,3.92,2.45,7.49,4,11.58,3,8.34,6.78,16.85,9.8,25,3,8,5.91,16.17,10.24,22.8,2.16,3.58,10.8,5.45,14.7,7.32,2.88,1.53,7.35,2.9,9.94,4.77,4.9,3.57,9.8,7.66,14.41,11.57,2.31,2,9.51,6.3,9.95,9.7Z" transform="translate(64.88 -115.86)" style="fill:#204a87"/><path d="M481.13,463.27a19.53,19.53,0,0,0-5.91.86v.34h.29c1.16,2.72,3.17,4.59,4.61,7,1.16,2.72,2.17,5.44,3.32,8.17l.29-.34c2-1.71,3-4.43,3-8.51-.86-1.2-1-2.39-1.73-3.58-.86-1.7-2.73-2.55-3.89-3.92Z" transform="translate(64.88 -115.86)" style="fill:#00546b"/><path d="M327.21,738.33H381.4a35.86,35.86,0,0,0,17.3-4.26c8.21-4.42,12.1-10.38,12.1-18.21V699.52c0-6.3-4.47-12.25-13.4-16.34a40.76,40.76,0,0,0-16-3.23H358.63c-7.64,0-11.24-2.73-12.25-8.68a10.1,10.1,0,0,1-.14-2v-10a9.21,9.21,0,0,1,.14-1.87c1-4.6,3-5.79,9.66-6.64h55.48V635.86H358.77c-7.63,0-11.67.51-15.27,1.88-11.1,4.08-16,10.55-16,22v12.94c0,10,9.51,18.55,25.65,20.59,1.73.17,3.61.17,5.48.17h19.46a7.47,7.47,0,0,1,2,.17c5.91.68,8.51,1.87,10.24,4.43a5.68,5.68,0,0,1,1.44,4.08V715a8,8,0,0,1-2.6,5.28,12.09,12.09,0,0,1-8.07,3.06c-.72,0-1.15.17-1.87.17h-52v14.81Zm200.91-25.7c0,15.14,9.65,23.65,29,25.36,1.87.17,3.6.34,5.47.34h49V723.52H562.13c-11,0-15.13-3.23-15.13-11.06v-76.6H528.12v76.77Zm-105.36.68V660.54c0-13.44,8.07-21.61,23.78-24.17,1.73-.17,3.46-.34,5-.34h35.74c1.88,0,3.46.17,5.33.34,15.71,2.56,23.64,10.73,23.64,24.17v52.77c0,10.89-3.32,16.68-11.1,20.59l18.45,19.74H501.89l-15-16-15.13,1H451.59A37.41,37.41,0,0,1,440.64,737c-12-3.91-17.88-11.4-17.88-23.65Zm20.32-1.2a14.92,14.92,0,0,0,.44,2.22c1,6.13,5.91,9.53,13.4,9.53h17l-15.57-16.68h21.76l13.7,14.64a10.56,10.56,0,0,0,4.75-7.15,11,11,0,0,0,.15-2.21V661.9a9.35,9.35,0,0,0-.15-2c-1-5.78-5.91-9-13.26-9H456.92c-8.36,0-13.84,4.26-13.84,11.06v50.21ZM620.21,738.5H623V726.07h3.6v-2.55H616.46v2.55h3.75Zm20.9,0h2.59v-15h-3.89l-3.17,10.21-3.46-10.21h-3.75v15h2.45V727.09H632l3.6,11.41h1.88l3.6-11.41Z" transform="translate(64.88 -115.86)" style="fill:#f57900"/><path d="M-64.88,115.86h850v850h-850Z" transform="translate(64.88 -115.86)" style="fill:none"/></svg>